<svg width="800" height="500" xmlns="http://www.w3.org/2000/svg">
  <!-- Title -->
  <text x="400" y="30" font-family="Malgun Gothic, Arial" font-size="20" font-weight="bold"
        text-anchor="middle" fill="#333">자재군별 소싱 전략 매트릭스</text>

  <!-- Header Row -->
  <rect x="50" y="60" width="150" height="50" fill="#E6E6E6" stroke="#666" stroke-width="1"/>
  <text x="125" y="90" font-family="Malgun Gothic" font-size="12" font-weight="bold"
        text-anchor="middle" fill="#333">구분</text>

  <rect x="200" y="60" width="150" height="50" fill="#E67E22" stroke="#666" stroke-width="1"/>
  <text x="275" y="90" font-family="Malgun Gothic" font-size="12" font-weight="bold"
        text-anchor="middle" fill="#FFF">🔴 병목자재</text>

  <rect x="350" y="60" width="150" height="50" fill="#27AE60" stroke="#666" stroke-width="1"/>
  <text x="425" y="90" font-family="Malgun Gothic" font-size="12" font-weight="bold"
        text-anchor="middle" fill="#FFF">🟢 레버리지</text>

  <rect x="500" y="60" width="150" height="50" fill="#8E44AD" stroke="#666" stroke-width="1"/>
  <text x="575" y="90" font-family="Malgun Gothic" font-size="12" font-weight="bold"
        text-anchor="middle" fill="#FFF">🟣 전략자재</text>

  <rect x="650" y="60" width="150" height="50" fill="#95A5A6" stroke="#666" stroke-width="1"/>
  <text x="725" y="90" font-family="Malgun Gothic" font-size="12" font-weight="bold"
        text-anchor="middle" fill="#FFF">⚪ 일상자재</text>

  <!-- Row 1: 핵심 목표 -->
  <rect x="50" y="110" width="150" height="50" fill="#F0F0F0" stroke="#666" stroke-width="1"/>
  <text x="125" y="140" font-family="Malgun Gothic" font-size="11" font-weight="bold"
        text-anchor="middle" fill="#333">핵심 목표</text>

  <rect x="200" y="110" width="150" height="50" fill="#FFF" stroke="#666" stroke-width="1"/>
  <text x="275" y="140" font-family="Malgun Gothic" font-size="10"
        text-anchor="middle" fill="#333">공급 안정성</text>

  <rect x="350" y="110" width="150" height="50" fill="#FFF" stroke="#666" stroke-width="1"/>
  <text x="425" y="140" font-family="Malgun Gothic" font-size="10"
        text-anchor="middle" fill="#333">원가 경쟁력</text>

  <rect x="500" y="110" width="150" height="50" fill="#FFF" stroke="#666" stroke-width="1"/>
  <text x="575" y="140" font-family="Malgun Gothic" font-size="10"
        text-anchor="middle" fill="#333">상호 성장</text>

  <rect x="650" y="110" width="150" height="50" fill="#FFF" stroke="#666" stroke-width="1"/>
  <text x="725" y="140" font-family="Malgun Gothic" font-size="10"
        text-anchor="middle" fill="#333">효율성</text>

  <!-- Row 2: 소싱 전략 -->
  <rect x="50" y="160" width="150" height="50" fill="#F0F0F0" stroke="#666" stroke-width="1"/>
  <text x="125" y="190" font-family="Malgun Gothic" font-size="11" font-weight="bold"
        text-anchor="middle" fill="#333">소싱 전략</text>

  <rect x="200" y="160" width="150" height="50" fill="#FFF" stroke="#666" stroke-width="1"/>
  <text x="275" y="190" font-family="Malgun Gothic" font-size="10"
        text-anchor="middle" fill="#333">공급선 다변화</text>

  <rect x="350" y="160" width="150" height="50" fill="#FFF" stroke="#666" stroke-width="1"/>
  <text x="425" y="190" font-family="Malgun Gothic" font-size="10"
        text-anchor="middle" fill="#333">경쟁 촉진</text>

  <rect x="500" y="160" width="150" height="50" fill="#FFF" stroke="#666" stroke-width="1"/>
  <text x="575" y="185" font-family="Malgun Gothic" font-size="10"
        text-anchor="middle" fill="#333">전략적</text>
  <text x="575" y="197" font-family="Malgun Gothic" font-size="10"
        text-anchor="middle" fill="#333">파트너십</text>

  <rect x="650" y="160" width="150" height="50" fill="#FFF" stroke="#666" stroke-width="1"/>
  <text x="725" y="185" font-family="Malgun Gothic" font-size="10"
        text-anchor="middle" fill="#333">통합 &amp;</text>
  <text x="725" y="197" font-family="Malgun Gothic" font-size="10"
        text-anchor="middle" fill="#333">자동화</text>

  <!-- Row 3: 공급업체 수 -->
  <rect x="50" y="210" width="150" height="50" fill="#F0F0F0" stroke="#666" stroke-width="1"/>
  <text x="125" y="240" font-family="Malgun Gothic" font-size="11" font-weight="bold"
        text-anchor="middle" fill="#333">공급업체 수</text>

  <rect x="200" y="210" width="150" height="50" fill="#FFF" stroke="#666" stroke-width="1"/>
  <text x="275" y="240" font-family="Malgun Gothic" font-size="10"
        text-anchor="middle" fill="#333">2~3개</text>

  <rect x="350" y="210" width="150" height="50" fill="#FFF" stroke="#666" stroke-width="1"/>
  <text x="425" y="240" font-family="Malgun Gothic" font-size="10"
        text-anchor="middle" fill="#333">5개 이상</text>

  <rect x="500" y="210" width="150" height="50" fill="#FFF" stroke="#666" stroke-width="1"/>
  <text x="575" y="240" font-family="Malgun Gothic" font-size="10"
        text-anchor="middle" fill="#333">1~2개 (전략적)</text>

  <rect x="650" y="210" width="150" height="50" fill="#FFF" stroke="#666" stroke-width="1"/>
  <text x="725" y="240" font-family="Malgun Gothic" font-size="10"
        text-anchor="middle" fill="#333">1~2개 (통합)</text>

  <!-- Row 4: 계약 기간 -->
  <rect x="50" y="260" width="150" height="50" fill="#F0F0F0" stroke="#666" stroke-width="1"/>
  <text x="125" y="290" font-family="Malgun Gothic" font-size="11" font-weight="bold"
        text-anchor="middle" fill="#333">계약 기간</text>

  <rect x="200" y="260" width="150" height="50" fill="#FFF" stroke="#666" stroke-width="1"/>
  <text x="275" y="285" font-family="Malgun Gothic" font-size="10"
        text-anchor="middle" fill="#333">중장기</text>
  <text x="275" y="297" font-family="Malgun Gothic" font-size="9"
        text-anchor="middle" fill="#666">(1~3년)</text>

  <rect x="350" y="260" width="150" height="50" fill="#FFF" stroke="#666" stroke-width="1"/>
  <text x="425" y="285" font-family="Malgun Gothic" font-size="10"
        text-anchor="middle" fill="#333">단기</text>
  <text x="425" y="297" font-family="Malgun Gothic" font-size="9"
        text-anchor="middle" fill="#666">(6개월~1년)</text>

  <rect x="500" y="260" width="150" height="50" fill="#FFF" stroke="#666" stroke-width="1"/>
  <text x="575" y="285" font-family="Malgun Gothic" font-size="10"
        text-anchor="middle" fill="#333">장기</text>
  <text x="575" y="297" font-family="Malgun Gothic" font-size="9"
        text-anchor="middle" fill="#666">(3~5년)</text>

  <rect x="650" y="260" width="150" height="50" fill="#FFF" stroke="#666" stroke-width="1"/>
  <text x="725" y="285" font-family="Malgun Gothic" font-size="10"
        text-anchor="middle" fill="#333">중기</text>
  <text x="725" y="297" font-family="Malgun Gothic" font-size="9"
        text-anchor="middle" fill="#666">(1~2년)</text>

  <!-- Row 5: 관계 유형 -->
  <rect x="50" y="310" width="150" height="50" fill="#F0F0F0" stroke="#666" stroke-width="1"/>
  <text x="125" y="340" font-family="Malgun Gothic" font-size="11" font-weight="bold"
        text-anchor="middle" fill="#333">관계 유형</text>

  <rect x="200" y="310" width="150" height="50" fill="#FFF" stroke="#666" stroke-width="1"/>
  <text x="275" y="340" font-family="Malgun Gothic" font-size="10"
        text-anchor="middle" fill="#333">협력적</text>

  <rect x="350" y="310" width="150" height="50" fill="#FFF" stroke="#666" stroke-width="1"/>
  <text x="425" y="340" font-family="Malgun Gothic" font-size="10"
        text-anchor="middle" fill="#333">거래적</text>

  <rect x="500" y="310" width="150" height="50" fill="#FFF" stroke="#666" stroke-width="1"/>
  <text x="575" y="340" font-family="Malgun Gothic" font-size="10"
        text-anchor="middle" fill="#333">파트너십</text>

  <rect x="650" y="310" width="150" height="50" fill="#FFF" stroke="#666" stroke-width="1"/>
  <text x="725" y="340" font-family="Malgun Gothic" font-size="10"
        text-anchor="middle" fill="#333">효율적</text>

  <!-- Row 6: 협상 방식 -->
  <rect x="50" y="360" width="150" height="50" fill="#F0F0F0" stroke="#666" stroke-width="1"/>
  <text x="125" y="390" font-family="Malgun Gothic" font-size="11" font-weight="bold"
        text-anchor="middle" fill="#333">협상 방식</text>

  <rect x="200" y="360" width="150" height="50" fill="#FFF" stroke="#666" stroke-width="1"/>
  <text x="275" y="390" font-family="Malgun Gothic" font-size="10"
        text-anchor="middle" fill="#333">안정성 중심</text>

  <rect x="350" y="360" width="150" height="50" fill="#FFF" stroke="#666" stroke-width="1"/>
  <text x="425" y="390" font-family="Malgun Gothic" font-size="10"
        text-anchor="middle" fill="#333">가격 경쟁</text>

  <rect x="500" y="360" width="150" height="50" fill="#FFF" stroke="#666" stroke-width="1"/>
  <text x="575" y="390" font-family="Malgun Gothic" font-size="10"
        text-anchor="middle" fill="#333">Win-Win</text>

  <rect x="650" y="360" width="150" height="50" fill="#FFF" stroke="#666" stroke-width="1"/>
  <text x="725" y="390" font-family="Malgun Gothic" font-size="10"
        text-anchor="middle" fill="#333">표준화</text>

  <!-- Row 7: 정보 공유 -->
  <rect x="50" y="410" width="150" height="50" fill="#F0F0F0" stroke="#666" stroke-width="1"/>
  <text x="125" y="440" font-family="Malgun Gothic" font-size="11" font-weight="bold"
        text-anchor="middle" fill="#333">정보 공유</text>

  <rect x="200" y="410" width="150" height="50" fill="#FFF" stroke="#666" stroke-width="1"/>
  <text x="275" y="440" font-family="Malgun Gothic" font-size="10"
        text-anchor="middle" fill="#333">중간 수준</text>

  <rect x="350" y="410" width="150" height="50" fill="#FFF" stroke="#666" stroke-width="1"/>
  <text x="425" y="440" font-family="Malgun Gothic" font-size="10"
        text-anchor="middle" fill="#333">제한적</text>

  <rect x="500" y="410" width="150" height="50" fill="#FFF" stroke="#666" stroke-width="1"/>
  <text x="575" y="440" font-family="Malgun Gothic" font-size="10"
        text-anchor="middle" fill="#333">고도 공유</text>

  <rect x="650" y="410" width="150" height="50" fill="#FFF" stroke="#666" stroke-width="1"/>
  <text x="725" y="440" font-family="Malgun Gothic" font-size="10"
        text-anchor="middle" fill="#333">최소화</text>
</svg>